<?xml version="1.0" standalone="no"?>
<!DOCTYPE svg PUBLIC "-//W3C//DTD SVG 20010904//EN"
 "http://www.w3.org/TR/2001/REC-SVG-20010904/DTD/svg10.dtd">
<svg version="1.0" xmlns="http://www.w3.org/2000/svg"
 width="700.000000pt" height="700.000000pt" viewBox="0 0 700.000000 700.000000"
 preserveAspectRatio="xMidYMid meet">
<metadata>
Created by potrace 1.14, written by Peter Selinger 2001-2017
</metadata>
<g transform="translate(0.000000,700.000000) scale(0.100000,-0.100000)"
fill="#000000" stroke="none">
<path d="M0 3500 l0 -3500 3500 0 3500 0 0 3500 0 3500 -3500 0 -3500 0 0
-3500z m2478 2103 l3 -151 -58 -7 c-189 -19 -329 -66 -462 -155 -239 -161
-373 -395 -406 -713 l-7 -58 -151 3 -152 3 3 75 c14 411 279 821 657 1017 163
84 388 143 530 139 l40 -1 3 -152z m1882 -121 c123 -61 176 -217 114 -336 -10
-20 -280 -298 -599 -617 l-580 -580 74 -70 74 -70 731 730 c709 708 733 730
785 745 68 20 84 20 152 0 67 -20 152 -101 168 -161 17 -60 13 -143 -10 -193
-15 -35 -187 -212 -739 -765 l-719 -720 69 -75 68 -75 602 608 c342 345 621
619 646 633 124 73 289 24 356 -105 33 -62 38 -157 13 -219 -11 -26 -225 -247
-708 -730 l-692 -692 73 -72 72 -73 477 477 c459 457 480 477 532 492 68 20
94 20 160 0 76 -22 144 -92 167 -169 18 -65 14 -124 -12 -183 -11 -24 -297
-317 -818 -838 -871 -870 -874 -873 -1106 -993 -407 -210 -873 -246 -1312
-101 -129 42 -334 147 -448 227 -122 87 -306 272 -392 393 -370 523 -418 1196
-127 1760 114 221 147 258 734 849 593 596 586 591 700 591 146 -1 255 -110
255 -255 -1 -109 -2 -111 -472 -582 l-431 -432 67 -72 c122 -132 177 -265 178
-429 0 -152 -49 -295 -139 -400 l-36 -42 71 -71 71 -71 22 19 c34 32 125 175
153 243 45 106 59 186 59 317 -1 172 -45 322 -132 449 -17 25 -31 48 -31 53 0
16 1585 1591 1618 1608 79 39 157 38 242 -3z m1392 -3082 c-10 -284 -145 -585
-356 -796 -211 -211 -512 -346 -796 -356 l-75 -3 -3 152 -3 151 58 7 c181 19
306 58 433 137 214 131 371 358 415 597 8 42 17 102 20 134 l7 58 151 -3 152
-3 -3 -75z"/>
</g>
</svg>
